<svg xmlns="http://www.w3.org/2000/svg" viewBox="0 0 562.59 108.26">
  <defs>
    <style>.cls-1{fill:#3f4348;}</style>
  </defs>
  <title>Logo_PUENTE_ARG_Negro_Reducido</title>
  <g id="Capa_2" data-name="Capa 2">
    <g id="Capa_1-2" data-name="Capa 1">
      <path class="cls-1"
        d="M51.35,0H0V4H15.74V87.51c-.25,6.24-.87,11.68-2.27,12.86-1.85,1.2-5.18,1.83-9.93,1.85H0v4H52.93v-4H48.65c-5,0-8.41-.71-10.22-2-1.27-.92-2-7.48-2.35-14.42V4h18.6C72.47,4,73.27,17.65,73.27,29.1c0,13-3.18,24.94-18.59,24.94H41.26v4H54.2c18.27,0,41.47-6.51,41.47-28.74C95.67,4.14,71.52,0,51.35,0Z" />
      <path class="cls-1"
        d="M163.69,15.33H176v60c0,18.21-6.07,27.71-24.41,27.71,0,0-19.38,2.71-21.18-22.64-.16-4.19,0-8.72,0-13.4V15.3h14V11.77H98.28V15.3h14v56c0,15.82,2.69,25,8.77,29.52s15,7.49,25,7.49h2.57c30.57,0,34.76-18.73,34.76-32.93v-60h12.69V11.8H163.69Z" />
      <path class="cls-1"
        d="M249.63,15.33c4.66,0,8.76.14,12.28,1.13,7.22,2,12.58,7.2,15.53,20.77h3.1V11.8H200.15v3.53h14.13V81.65a99.88,99.88,0,0,1-.65,12.94,10.1,10.1,0,0,1-3.18,5.77c-1.55,1.44-4,2.18-9,2.28h-1.3v3.5h80.41V75.79h-2.84c-3,16-6.93,26.85-25.31,26.85h-4.2c-7.14-.1-11.58-1.27-13.25-3.57s-2.55-10-2.59-22.93V59.4c15.24-.42,20.2,3,21.46,18.65h3.95V38.63h-3.95c-.71,15.12-7.91,17.24-21.46,17.24V15.33Z" />
      <path class="cls-1"
        d="M353.85,15.33H366V71.41L325.61,11.8H289.44v3.53h12.21V90c-.12,8.39-1.14,10.73-11.23,12.41l-1.6.18v3.54h34.69v-3.57c-1.15,0-2.21-.06-3.22-.13C309,100.57,309,97.91,309,86.9h0v-67l58.71,88h5.62V15.33h12.7V11.8h-32.2Z" />
      <path class="cls-1"
        d="M392.52,42h3c2.55-18.07,8.63-27.67,28.55-26.69V84.94a69.49,69.49,0,0,1-.72,9.77,8.56,8.56,0,0,1-3.63,5.77q-2.82,1.86-10.18,1.87h-5.9v3.89h58.61v-3.89h-5.57q-7.67,0-10.47-2a8.92,8.92,0,0,1-3.41-6.26q-.65-4.22-.65-17.63V15.36c19.93-1,26,8.62,28.55,26.69h2.75V11.8H392.52Z" />
      <path class="cls-1"
        d="M531.65,15.33c4.67,0,8.76.14,12.3,1.13,7.21,2,12.56,7.2,15.54,20.77h3.1V11.8H482.14v3.53h14.14v68a83.82,83.82,0,0,1-.63,11.31,10.31,10.31,0,0,1-3.18,5.77c-1.54,1.44-4,2.18-9,2.28h-1.33v3.5h80.45V75.79h-2.88c-3,16-6.93,26.85-25.29,26.85h-4.24c-7.12-.1-11.57-1.27-13.24-3.57s-2.42-8.8-2.6-19.88V59.4c15.29-.42,20.23,3,21.5,18.65h3.94V38.63h-3.94c-.71,15.12-7.92,17.24-21.5,17.24V15.33Z" />
    </g>
  </g>
</svg>